<svg width="8" height="129" viewBox="0 0 8 129" fill="none" xmlns="http://www.w3.org/2000/svg">
<path id="Vector" d="M68.6296 1.11506C77.6941 0.416903 86.6556 7.63877 87.9031 16.6461C88.5441 21.3042 87.3538 26.1112 88.2351 30.7236C89.4711 37.213 94.5527 42.2717 99.8633 46.1974C105.174 50.1231 111.068 53.4879 115.246 58.6039C119.423 63.7199 121.495 71.3538 117.992 76.9619C114.605 82.3868 107.211 84.2753 103.881 89.7461C98.4784 98.6275 106.845 110.931 102.267 120.27C99.9548 124.986 94.5871 127.744 89.3338 127.801C84.0805 127.847 79.0217 125.512 74.9473 122.193C70.1518 118.279 66.2948 112.877 60.4921 110.725C51.0384 107.223 41.0926 113.655 31.204 115.635C21.8877 117.5 11.4154 114.88 5.21215 107.692C-0.991108 100.504 -1.68926 88.6359 4.76579 81.6658C8.2451 77.9004 13.5556 75.4854 15.2152 70.6327C17.2753 64.6126 12.6629 58.6039 9.22939 53.259C6.36811 48.8183 4.12486 43.7939 3.98752 38.5177C3.86162 33.2415 6.18498 27.6906 10.7401 25.0125C21.8534 18.5002 36.835 31.0326 47.3073 21.9452C55.399 14.9293 55.1243 2.16801 68.6181 1.1265L68.6296 1.11506Z" stroke="#FF5722" stroke-width="0.434915" stroke-linecap="round" stroke-linejoin="round"/>
</svg>
